<?xml version="1.0" encoding="utf-8"?>
<!-- Generator: Adobe Illustrator 27.4.1, SVG Export Plug-In . SVG Version: 6.00 Build 0)  -->
<svg version="1.1" id="Layer_1" xmlns="http://www.w3.org/2000/svg" xmlns:xlink="http://www.w3.org/1999/xlink" x="0px" y="0px"
	 viewBox="0 0 288 144" style="enable-background:new 0 0 288 144;" xml:space="preserve">
<style type="text/css">
	.st0{fill:#F8E1D1;stroke:#723617;stroke-width:1.6345;stroke-miterlimit:10;}
	.st1{fill:none;stroke:#723617;stroke-width:6.3028;stroke-miterlimit:10;}
	.st2{fill:#723617;}
	.st3{fill:#FFFFFF;}
	.st4{font-family:'BalooBhaijaan-Regular';}
	.st5{font-size:31.0547px;}
	.st6{letter-spacing:1;}
</style>
<g>
	<path class="st0" d="M64.48,39.81c0.15,1.8-5.17,3.43-8.46,5.45C44.18,52.52,18.8,77.84,71.25,99.73
		c58.73,24.52,52.44-39.95,28.91-54.9c-1.33-0.84-6.59-3.4-6.91-5.02c-0.92-4.49,0.43-11.65-7.98-4.06c-0.2,0.18-0.52,0.08-0.57-0.2
		c-0.45-2.63-2.68-12-10.03,0.59c-0.02,0.02-0.03,0.03-0.05,0.02C74.04,35.46,63.25,24.48,64.48,39.81z"/>
	<path class="st0" d="M227.38,39.81c-0.15,1.8,5.17,3.43,8.46,5.45c11.84,7.27,37.22,32.58-15.22,54.47
		c-58.73,24.52-52.44-39.95-28.91-54.9c1.33-0.84,6.59-3.4,6.91-5.02c0.92-4.49-0.43-11.65,7.98-4.06c0.2,0.18,0.52,0.08,0.57-0.2
		c0.45-2.63,2.68-12,10.03,0.59c0.02,0.02,0.03,0.03,0.05,0.02C217.82,35.46,228.61,24.48,227.38,39.81z"/>
	<path class="st0" d="M135.53,37.99c0.45,1.95-11.84,7.27-18.61,12.71c-15.43,12.42-35.66,60.61,20.3,72.63
		c67.67,14.52,65.97-58.1,32.14-76.26c-1.54-0.83-6.42-5.46-6.77-7.27c-0.97-5,1.81-10.9-7.61-2.57c-0.23,0.2-0.58,0.09-0.63-0.23
		c-0.47-2.93-2.86-13.36-11.15,0.53c-0.02,0.02-0.04,0.04-0.06,0.02C142.53,36.79,132.15,23.47,135.53,37.99z"/>
	<g>
		<path class="st0" d="M71.25,39.81c0,0-1.69,7.27-6.77,7.27"/>
		<path class="st0" d="M79.71,39.81c0,0-1.69,9.08-3.38,9.08"/>
		<path class="st0" d="M86.85,40.15c0,0,1.07,9.03,4.09,8.38"/>
	</g>
	<g>
		<path class="st0" d="M140.61,43.44c0,0-1.69,7.27-6.77,7.27"/>
		<path class="st0" d="M149.06,43.44c0,0-1.69,9.08-3.38,9.08"/>
		<path class="st0" d="M156.21,43.78c0,0,1.07,9.03,4.09,8.38"/>
	</g>
	<g>
		<path class="st0" d="M220.36,42.21c0,0,1.14,7.39,6.19,7.83"/>
		<path class="st0" d="M211.94,41.47c0,0,1,9.19,2.68,9.35"/>
		<path class="st0" d="M204.78,41.18c0,0-1.76,8.9-4.72,8"/>
	</g>
</g>
<ellipse class="st1" cx="145.73" cy="72" rx="124.09" ry="67.49"/>
<rect x="21.64" y="59.14" class="st2" width="248.18" height="28.41"/>
<text transform="matrix(1 0 0 1 71.25 83.3371)" class="st3 st4 st5 st6">DimShum</text>
</svg>
